<svg xmlns="http://www.w3.org/2000/svg" viewBox="0 0 1130 234" role="img" aria-labelledby="title desc">
  <title id="title">GitHub Painter Canvas Render</title>
  <desc id="desc">Generated from painter/canvas.json.</desc>
  <rect x="6" y="6" width="30" height="30" rx="4" fill="#39d353"/>
  <rect x="134" y="6" width="30" height="30" rx="4" fill="#39d353"/>
  <rect x="230" y="6" width="30" height="30" rx="4" fill="#39d353"/>
  <rect x="262" y="6" width="30" height="30" rx="4" fill="#39d353"/>
  <rect x="294" y="6" width="30" height="30" rx="4" fill="#39d353"/>
  <rect x="390" y="6" width="30" height="30" rx="4" fill="#39d353"/>
  <rect x="518" y="6" width="30" height="30" rx="4" fill="#39d353"/>
  <rect x="582" y="6" width="30" height="30" rx="4" fill="#39d353"/>
  <rect x="614" y="6" width="30" height="30" rx="4" fill="#39d353"/>
  <rect x="646" y="6" width="30" height="30" rx="4" fill="#39d353"/>
  <rect x="678" y="6" width="30" height="30" rx="4" fill="#39d353"/>
  <rect x="710" y="6" width="30" height="30" rx="4" fill="#39d353"/>
  <rect x="806" y="6" width="30" height="30" rx="4" fill="#39d353"/>
  <rect x="838" y="6" width="30" height="30" rx="4" fill="#39d353"/>
  <rect x="870" y="6" width="30" height="30" rx="4" fill="#39d353"/>
  <rect x="966" y="6" width="30" height="30" rx="4" fill="#39d353"/>
  <rect x="6" y="38" width="30" height="30" rx="4" fill="#39d353"/>
  <rect x="38" y="38" width="30" height="30" rx="4" fill="#39d353"/>
  <rect x="134" y="38" width="30" height="30" rx="4" fill="#39d353"/>
  <rect x="198" y="38" width="30" height="30" rx="4" fill="#39d353"/>
  <rect x="326" y="38" width="30" height="30" rx="4" fill="#39d353"/>
  <rect x="390" y="38" width="30" height="30" rx="4" fill="#39d353"/>
  <rect x="518" y="38" width="30" height="30" rx="4" fill="#39d353"/>
  <rect x="582" y="38" width="30" height="30" rx="4" fill="#39d353"/>
  <rect x="774" y="38" width="30" height="30" rx="4" fill="#39d353"/>
  <rect x="902" y="38" width="30" height="30" rx="4" fill="#39d353"/>
  <rect x="966" y="38" width="30" height="30" rx="4" fill="#39d353"/>
  <rect x="6" y="70" width="30" height="30" rx="4" fill="#39d353"/>
  <rect x="70" y="70" width="30" height="30" rx="4" fill="#39d353"/>
  <rect x="134" y="70" width="30" height="30" rx="4" fill="#39d353"/>
  <rect x="198" y="70" width="30" height="30" rx="4" fill="#39d353"/>
  <rect x="326" y="70" width="30" height="30" rx="4" fill="#39d353"/>
  <rect x="390" y="70" width="30" height="30" rx="4" fill="#39d353"/>
  <rect x="518" y="70" width="30" height="30" rx="4" fill="#39d353"/>
  <rect x="582" y="70" width="30" height="30" rx="4" fill="#39d353"/>
  <rect x="774" y="70" width="30" height="30" rx="4" fill="#39d353"/>
  <rect x="902" y="70" width="30" height="30" rx="4" fill="#39d353"/>
  <rect x="966" y="70" width="30" height="30" rx="4" fill="#39d353"/>
  <rect x="6" y="102" width="30" height="30" rx="4" fill="#39d353"/>
  <rect x="102" y="102" width="30" height="30" rx="4" fill="#39d353"/>
  <rect x="134" y="102" width="30" height="30" rx="4" fill="#39d353"/>
  <rect x="198" y="102" width="30" height="30" rx="4" fill="#39d353"/>
  <rect x="230" y="102" width="30" height="30" rx="4" fill="#39d353"/>
  <rect x="262" y="102" width="30" height="30" rx="4" fill="#39d353"/>
  <rect x="294" y="102" width="30" height="30" rx="4" fill="#39d353"/>
  <rect x="326" y="102" width="30" height="30" rx="4" fill="#39d353"/>
  <rect x="390" y="102" width="30" height="30" rx="4" fill="#39d353"/>
  <rect x="518" y="102" width="30" height="30" rx="4" fill="#39d353"/>
  <rect x="582" y="102" width="30" height="30" rx="4" fill="#39d353"/>
  <rect x="614" y="102" width="30" height="30" rx="4" fill="#39d353"/>
  <rect x="646" y="102" width="30" height="30" rx="4" fill="#39d353"/>
  <rect x="678" y="102" width="30" height="30" rx="4" fill="#39d353"/>
  <rect x="774" y="102" width="30" height="30" rx="4" fill="#39d353"/>
  <rect x="806" y="102" width="30" height="30" rx="4" fill="#39d353"/>
  <rect x="838" y="102" width="30" height="30" rx="4" fill="#39d353"/>
  <rect x="870" y="102" width="30" height="30" rx="4" fill="#39d353"/>
  <rect x="902" y="102" width="30" height="30" rx="4" fill="#39d353"/>
  <rect x="966" y="102" width="30" height="30" rx="4" fill="#39d353"/>
  <rect x="6" y="134" width="30" height="30" rx="4" fill="#39d353"/>
  <rect x="134" y="134" width="30" height="30" rx="4" fill="#39d353"/>
  <rect x="198" y="134" width="30" height="30" rx="4" fill="#39d353"/>
  <rect x="326" y="134" width="30" height="30" rx="4" fill="#39d353"/>
  <rect x="390" y="134" width="30" height="30" rx="4" fill="#39d353"/>
  <rect x="518" y="134" width="30" height="30" rx="4" fill="#39d353"/>
  <rect x="582" y="134" width="30" height="30" rx="4" fill="#39d353"/>
  <rect x="774" y="134" width="30" height="30" rx="4" fill="#39d353"/>
  <rect x="902" y="134" width="30" height="30" rx="4" fill="#39d353"/>
  <rect x="966" y="134" width="30" height="30" rx="4" fill="#39d353"/>
  <rect x="6" y="166" width="30" height="30" rx="4" fill="#39d353"/>
  <rect x="134" y="166" width="30" height="30" rx="4" fill="#39d353"/>
  <rect x="198" y="166" width="30" height="30" rx="4" fill="#39d353"/>
  <rect x="326" y="166" width="30" height="30" rx="4" fill="#39d353"/>
  <rect x="390" y="166" width="30" height="30" rx="4" fill="#39d353"/>
  <rect x="518" y="166" width="30" height="30" rx="4" fill="#39d353"/>
  <rect x="582" y="166" width="30" height="30" rx="4" fill="#39d353"/>
  <rect x="774" y="166" width="30" height="30" rx="4" fill="#39d353"/>
  <rect x="902" y="166" width="30" height="30" rx="4" fill="#39d353"/>
  <rect x="966" y="166" width="30" height="30" rx="4" fill="#39d353"/>
  <rect x="6" y="198" width="30" height="30" rx="4" fill="#39d353"/>
  <rect x="134" y="198" width="30" height="30" rx="4" fill="#39d353"/>
  <rect x="198" y="198" width="30" height="30" rx="4" fill="#39d353"/>
  <rect x="326" y="198" width="30" height="30" rx="4" fill="#39d353"/>
  <rect x="422" y="198" width="30" height="30" rx="4" fill="#39d353"/>
  <rect x="454" y="198" width="30" height="30" rx="4" fill="#39d353"/>
  <rect x="486" y="198" width="30" height="30" rx="4" fill="#39d353"/>
  <rect x="582" y="198" width="30" height="30" rx="4" fill="#39d353"/>
  <rect x="774" y="198" width="30" height="30" rx="4" fill="#39d353"/>
  <rect x="902" y="198" width="30" height="30" rx="4" fill="#39d353"/>
  <rect x="966" y="198" width="30" height="30" rx="4" fill="#39d353"/>
  <rect x="998" y="198" width="30" height="30" rx="4" fill="#39d353"/>
  <rect x="1030" y="198" width="30" height="30" rx="4" fill="#39d353"/>
  <rect x="1062" y="198" width="30" height="30" rx="4" fill="#39d353"/>
  <rect x="1094" y="198" width="30" height="30" rx="4" fill="#39d353"/>
</svg>
