<svg xmlns="http://www.w3.org/2000/svg" viewBox="0 0 1710 238" role="img" aria-labelledby="title desc">
  <title id="title">GitHub Painter Canvas Render</title>
  <desc id="desc">Generated from painter/canvas.json.</desc>
  <rect width="1710" height="238" fill="#0f0f0f"/>
  <rect x="8" y="8" width="30" height="30" rx="4" fill="#262626"/>
  <rect x="40" y="8" width="30" height="30" rx="4" fill="#262626"/>
  <rect x="72" y="8" width="30" height="30" rx="4" fill="#262626"/>
  <rect x="104" y="8" width="30" height="30" rx="4" fill="#262626"/>
  <rect x="136" y="8" width="30" height="30" rx="4" fill="#262626"/>
  <rect x="168" y="8" width="30" height="30" rx="4" fill="#262626"/>
  <rect x="200" y="8" width="30" height="30" rx="4" fill="#262626"/>
  <rect x="232" y="8" width="30" height="30" rx="4" fill="#262626"/>
  <rect x="264" y="8" width="30" height="30" rx="4" fill="#262626"/>
  <rect x="296" y="8" width="30" height="30" rx="4" fill="#262626"/>
  <rect x="328" y="8" width="30" height="30" rx="4" fill="#262626"/>
  <rect x="360" y="8" width="30" height="30" rx="4" fill="#262626"/>
  <rect x="392" y="8" width="30" height="30" rx="4" fill="#262626"/>
  <rect x="424" y="8" width="30" height="30" rx="4" fill="#262626"/>
  <rect x="456" y="8" width="30" height="30" rx="4" fill="#262626"/>
  <rect x="488" y="8" width="30" height="30" rx="4" fill="#262626"/>
  <rect x="520" y="8" width="30" height="30" rx="4" fill="#262626"/>
  <rect x="552" y="8" width="30" height="30" rx="4" fill="#262626"/>
  <rect x="584" y="8" width="30" height="30" rx="4" fill="#262626"/>
  <rect x="616" y="8" width="30" height="30" rx="4" fill="#262626"/>
  <rect x="648" y="8" width="30" height="30" rx="4" fill="#262626"/>
  <rect x="680" y="8" width="30" height="30" rx="4" fill="#262626"/>
  <rect x="712" y="8" width="30" height="30" rx="4" fill="#262626"/>
  <rect x="744" y="8" width="30" height="30" rx="4" fill="#262626"/>
  <rect x="776" y="8" width="30" height="30" rx="4" fill="#262626"/>
  <rect x="808" y="8" width="30" height="30" rx="4" fill="#262626"/>
  <rect x="840" y="8" width="30" height="30" rx="4" fill="#262626"/>
  <rect x="872" y="8" width="30" height="30" rx="4" fill="#262626"/>
  <rect x="904" y="8" width="30" height="30" rx="4" fill="#262626"/>
  <rect x="936" y="8" width="30" height="30" rx="4" fill="#262626"/>
  <rect x="968" y="8" width="30" height="30" rx="4" fill="#262626"/>
  <rect x="1000" y="8" width="30" height="30" rx="4" fill="#262626"/>
  <rect x="1032" y="8" width="30" height="30" rx="4" fill="#262626"/>
  <rect x="1064" y="8" width="30" height="30" rx="4" fill="#262626"/>
  <rect x="1096" y="8" width="30" height="30" rx="4" fill="#262626"/>
  <rect x="1128" y="8" width="30" height="30" rx="4" fill="#262626"/>
  <rect x="1160" y="8" width="30" height="30" rx="4" fill="#262626"/>
  <rect x="1192" y="8" width="30" height="30" rx="4" fill="#262626"/>
  <rect x="1224" y="8" width="30" height="30" rx="4" fill="#262626"/>
  <rect x="1256" y="8" width="30" height="30" rx="4" fill="#262626"/>
  <rect x="1288" y="8" width="30" height="30" rx="4" fill="#262626"/>
  <rect x="1320" y="8" width="30" height="30" rx="4" fill="#262626"/>
  <rect x="1352" y="8" width="30" height="30" rx="4" fill="#262626"/>
  <rect x="1384" y="8" width="30" height="30" rx="4" fill="#262626"/>
  <rect x="1416" y="8" width="30" height="30" rx="4" fill="#262626"/>
  <rect x="1448" y="8" width="30" height="30" rx="4" fill="#262626"/>
  <rect x="1480" y="8" width="30" height="30" rx="4" fill="#262626"/>
  <rect x="1512" y="8" width="30" height="30" rx="4" fill="#262626"/>
  <rect x="1544" y="8" width="30" height="30" rx="4" fill="#262626"/>
  <rect x="1576" y="8" width="30" height="30" rx="4" fill="#262626"/>
  <rect x="1608" y="8" width="30" height="30" rx="4" fill="#262626"/>
  <rect x="1640" y="8" width="30" height="30" rx="4" fill="#262626"/>
  <rect x="1672" y="8" width="30" height="30" rx="4" fill="#262626"/>
  <rect x="8" y="40" width="30" height="30" rx="4" fill="#262626"/>
  <rect x="40" y="40" width="30" height="30" rx="4" fill="#262626"/>
  <rect x="72" y="40" width="30" height="30" rx="4" fill="#262626"/>
  <rect x="104" y="40" width="30" height="30" rx="4" fill="#262626"/>
  <rect x="136" y="40" width="30" height="30" rx="4" fill="#39d353"/>
  <rect x="168" y="40" width="30" height="30" rx="4" fill="#26a641"/>
  <rect x="200" y="40" width="30" height="30" rx="4" fill="#262626"/>
  <rect x="232" y="40" width="30" height="30" rx="4" fill="#262626"/>
  <rect x="264" y="40" width="30" height="30" rx="4" fill="#262626"/>
  <rect x="296" y="40" width="30" height="30" rx="4" fill="#39d353"/>
  <rect x="328" y="40" width="30" height="30" rx="4" fill="#262626"/>
  <rect x="360" y="40" width="30" height="30" rx="4" fill="#39d353"/>
  <rect x="392" y="40" width="30" height="30" rx="4" fill="#016c31"/>
  <rect x="424" y="40" width="30" height="30" rx="4" fill="#26a641"/>
  <rect x="456" y="40" width="30" height="30" rx="4" fill="#262626"/>
  <rect x="488" y="40" width="30" height="30" rx="4" fill="#39d353"/>
  <rect x="520" y="40" width="30" height="30" rx="4" fill="#262626"/>
  <rect x="552" y="40" width="30" height="30" rx="4" fill="#262626"/>
  <rect x="584" y="40" width="30" height="30" rx="4" fill="#262626"/>
  <rect x="616" y="40" width="30" height="30" rx="4" fill="#262626"/>
  <rect x="648" y="40" width="30" height="30" rx="4" fill="#262626"/>
  <rect x="680" y="40" width="30" height="30" rx="4" fill="#39d353"/>
  <rect x="712" y="40" width="30" height="30" rx="4" fill="#262626"/>
  <rect x="744" y="40" width="30" height="30" rx="4" fill="#39d353"/>
  <rect x="776" y="40" width="30" height="30" rx="4" fill="#016c31"/>
  <rect x="808" y="40" width="30" height="30" rx="4" fill="#26a641"/>
  <rect x="840" y="40" width="30" height="30" rx="4" fill="#262626"/>
  <rect x="872" y="40" width="30" height="30" rx="4" fill="#39d353"/>
  <rect x="904" y="40" width="30" height="30" rx="4" fill="#016c31"/>
  <rect x="936" y="40" width="30" height="30" rx="4" fill="#26a641"/>
  <rect x="968" y="40" width="30" height="30" rx="4" fill="#262626"/>
  <rect x="1000" y="40" width="30" height="30" rx="4" fill="#39d353"/>
  <rect x="1032" y="40" width="30" height="30" rx="4" fill="#262626"/>
  <rect x="1064" y="40" width="30" height="30" rx="4" fill="#262626"/>
  <rect x="1096" y="40" width="30" height="30" rx="4" fill="#262626"/>
  <rect x="1128" y="40" width="30" height="30" rx="4" fill="#262626"/>
  <rect x="1160" y="40" width="30" height="30" rx="4" fill="#262626"/>
  <rect x="1192" y="40" width="30" height="30" rx="4" fill="#016c31"/>
  <rect x="1224" y="40" width="30" height="30" rx="4" fill="#262626"/>
  <rect x="1256" y="40" width="30" height="30" rx="4" fill="#39d353"/>
  <rect x="1288" y="40" width="30" height="30" rx="4" fill="#262626"/>
  <rect x="1320" y="40" width="30" height="30" rx="4" fill="#262626"/>
  <rect x="1352" y="40" width="30" height="30" rx="4" fill="#262626"/>
  <rect x="1384" y="40" width="30" height="30" rx="4" fill="#262626"/>
  <rect x="1416" y="40" width="30" height="30" rx="4" fill="#262626"/>
  <rect x="1448" y="40" width="30" height="30" rx="4" fill="#262626"/>
  <rect x="1480" y="40" width="30" height="30" rx="4" fill="#262626"/>
  <rect x="1512" y="40" width="30" height="30" rx="4" fill="#262626"/>
  <rect x="1544" y="40" width="30" height="30" rx="4" fill="#262626"/>
  <rect x="1576" y="40" width="30" height="30" rx="4" fill="#262626"/>
  <rect x="1608" y="40" width="30" height="30" rx="4" fill="#262626"/>
  <rect x="1640" y="40" width="30" height="30" rx="4" fill="#262626"/>
  <rect x="1672" y="40" width="30" height="30" rx="4" fill="#262626"/>
  <rect x="8" y="72" width="30" height="30" rx="4" fill="#262626"/>
  <rect x="40" y="72" width="30" height="30" rx="4" fill="#262626"/>
  <rect x="72" y="72" width="30" height="30" rx="4" fill="#262626"/>
  <rect x="104" y="72" width="30" height="30" rx="4" fill="#262626"/>
  <rect x="136" y="72" width="30" height="30" rx="4" fill="#39d353"/>
  <rect x="168" y="72" width="30" height="30" rx="4" fill="#016c31"/>
  <rect x="200" y="72" width="30" height="30" rx="4" fill="#26a641"/>
  <rect x="232" y="72" width="30" height="30" rx="4" fill="#262626"/>
  <rect x="264" y="72" width="30" height="30" rx="4" fill="#262626"/>
  <rect x="296" y="72" width="30" height="30" rx="4" fill="#39d353"/>
  <rect x="328" y="72" width="30" height="30" rx="4" fill="#262626"/>
  <rect x="360" y="72" width="30" height="30" rx="4" fill="#39d353"/>
  <rect x="392" y="72" width="30" height="30" rx="4" fill="#262626"/>
  <rect x="424" y="72" width="30" height="30" rx="4" fill="#26a641"/>
  <rect x="456" y="72" width="30" height="30" rx="4" fill="#262626"/>
  <rect x="488" y="72" width="30" height="30" rx="4" fill="#39d353"/>
  <rect x="520" y="72" width="30" height="30" rx="4" fill="#262626"/>
  <rect x="552" y="72" width="30" height="30" rx="4" fill="#39d353"/>
  <rect x="584" y="72" width="30" height="30" rx="4" fill="#262626"/>
  <rect x="616" y="72" width="30" height="30" rx="4" fill="#39d353"/>
  <rect x="648" y="72" width="30" height="30" rx="4" fill="#262626"/>
  <rect x="680" y="72" width="30" height="30" rx="4" fill="#39d353"/>
  <rect x="712" y="72" width="30" height="30" rx="4" fill="#262626"/>
  <rect x="744" y="72" width="30" height="30" rx="4" fill="#39d353"/>
  <rect x="776" y="72" width="30" height="30" rx="4" fill="#262626"/>
  <rect x="808" y="72" width="30" height="30" rx="4" fill="#262626"/>
  <rect x="840" y="72" width="30" height="30" rx="4" fill="#262626"/>
  <rect x="872" y="72" width="30" height="30" rx="4" fill="#39d353"/>
  <rect x="904" y="72" width="30" height="30" rx="4" fill="#262626"/>
  <rect x="936" y="72" width="30" height="30" rx="4" fill="#26a641"/>
  <rect x="968" y="72" width="30" height="30" rx="4" fill="#262626"/>
  <rect x="1000" y="72" width="30" height="30" rx="4" fill="#39d353"/>
  <rect x="1032" y="72" width="30" height="30" rx="4" fill="#262626"/>
  <rect x="1064" y="72" width="30" height="30" rx="4" fill="#262626"/>
  <rect x="1096" y="72" width="30" height="30" rx="4" fill="#262626"/>
  <rect x="1128" y="72" width="30" height="30" rx="4" fill="#262626"/>
  <rect x="1160" y="72" width="30" height="30" rx="4" fill="#016c31"/>
  <rect x="1192" y="72" width="30" height="30" rx="4" fill="#016c31"/>
  <rect x="1224" y="72" width="30" height="30" rx="4" fill="#26a641"/>
  <rect x="1256" y="72" width="30" height="30" rx="4" fill="#39d353"/>
  <rect x="1288" y="72" width="30" height="30" rx="4" fill="#39d353"/>
  <rect x="1320" y="72" width="30" height="30" rx="4" fill="#262626"/>
  <rect x="1352" y="72" width="30" height="30" rx="4" fill="#262626"/>
  <rect x="1384" y="72" width="30" height="30" rx="4" fill="#262626"/>
  <rect x="1416" y="72" width="30" height="30" rx="4" fill="#262626"/>
  <rect x="1448" y="72" width="30" height="30" rx="4" fill="#262626"/>
  <rect x="1480" y="72" width="30" height="30" rx="4" fill="#262626"/>
  <rect x="1512" y="72" width="30" height="30" rx="4" fill="#262626"/>
  <rect x="1544" y="72" width="30" height="30" rx="4" fill="#262626"/>
  <rect x="1576" y="72" width="30" height="30" rx="4" fill="#262626"/>
  <rect x="1608" y="72" width="30" height="30" rx="4" fill="#262626"/>
  <rect x="1640" y="72" width="30" height="30" rx="4" fill="#262626"/>
  <rect x="1672" y="72" width="30" height="30" rx="4" fill="#262626"/>
  <rect x="8" y="104" width="30" height="30" rx="4" fill="#262626"/>
  <rect x="40" y="104" width="30" height="30" rx="4" fill="#262626"/>
  <rect x="72" y="104" width="30" height="30" rx="4" fill="#262626"/>
  <rect x="104" y="104" width="30" height="30" rx="4" fill="#262626"/>
  <rect x="136" y="104" width="30" height="30" rx="4" fill="#39d353"/>
  <rect x="168" y="104" width="30" height="30" rx="4" fill="#262626"/>
  <rect x="200" y="104" width="30" height="30" rx="4" fill="#016c31"/>
  <rect x="232" y="104" width="30" height="30" rx="4" fill="#26a641"/>
  <rect x="264" y="104" width="30" height="30" rx="4" fill="#262626"/>
  <rect x="296" y="104" width="30" height="30" rx="4" fill="#39d353"/>
  <rect x="328" y="104" width="30" height="30" rx="4" fill="#262626"/>
  <rect x="360" y="104" width="30" height="30" rx="4" fill="#39d353"/>
  <rect x="392" y="104" width="30" height="30" rx="4" fill="#016c31"/>
  <rect x="424" y="104" width="30" height="30" rx="4" fill="#26a641"/>
  <rect x="456" y="104" width="30" height="30" rx="4" fill="#262626"/>
  <rect x="488" y="104" width="30" height="30" rx="4" fill="#39d353"/>
  <rect x="520" y="104" width="30" height="30" rx="4" fill="#262626"/>
  <rect x="552" y="104" width="30" height="30" rx="4" fill="#262626"/>
  <rect x="584" y="104" width="30" height="30" rx="4" fill="#262626"/>
  <rect x="616" y="104" width="30" height="30" rx="4" fill="#262626"/>
  <rect x="648" y="104" width="30" height="30" rx="4" fill="#262626"/>
  <rect x="680" y="104" width="30" height="30" rx="4" fill="#39d353"/>
  <rect x="712" y="104" width="30" height="30" rx="4" fill="#262626"/>
  <rect x="744" y="104" width="30" height="30" rx="4" fill="#39d353"/>
  <rect x="776" y="104" width="30" height="30" rx="4" fill="#26a641"/>
  <rect x="808" y="104" width="30" height="30" rx="4" fill="#39d353"/>
  <rect x="840" y="104" width="30" height="30" rx="4" fill="#262626"/>
  <rect x="872" y="104" width="30" height="30" rx="4" fill="#39d353"/>
  <rect x="904" y="104" width="30" height="30" rx="4" fill="#016c31"/>
  <rect x="936" y="104" width="30" height="30" rx="4" fill="#26a641"/>
  <rect x="968" y="104" width="30" height="30" rx="4" fill="#262626"/>
  <rect x="1000" y="104" width="30" height="30" rx="4" fill="#39d353"/>
  <rect x="1032" y="104" width="30" height="30" rx="4" fill="#262626"/>
  <rect x="1064" y="104" width="30" height="30" rx="4" fill="#262626"/>
  <rect x="1096" y="104" width="30" height="30" rx="4" fill="#262626"/>
  <rect x="1128" y="104" width="30" height="30" rx="4" fill="#262626"/>
  <rect x="1160" y="104" width="30" height="30" rx="4" fill="#016c31"/>
  <rect x="1192" y="104" width="30" height="30" rx="4" fill="#016c31"/>
  <rect x="1224" y="104" width="30" height="30" rx="4" fill="#26a641"/>
  <rect x="1256" y="104" width="30" height="30" rx="4" fill="#39d353"/>
  <rect x="1288" y="104" width="30" height="30" rx="4" fill="#39d353"/>
  <rect x="1320" y="104" width="30" height="30" rx="4" fill="#262626"/>
  <rect x="1352" y="104" width="30" height="30" rx="4" fill="#262626"/>
  <rect x="1384" y="104" width="30" height="30" rx="4" fill="#262626"/>
  <rect x="1416" y="104" width="30" height="30" rx="4" fill="#262626"/>
  <rect x="1448" y="104" width="30" height="30" rx="4" fill="#262626"/>
  <rect x="1480" y="104" width="30" height="30" rx="4" fill="#262626"/>
  <rect x="1512" y="104" width="30" height="30" rx="4" fill="#262626"/>
  <rect x="1544" y="104" width="30" height="30" rx="4" fill="#262626"/>
  <rect x="1576" y="104" width="30" height="30" rx="4" fill="#262626"/>
  <rect x="1608" y="104" width="30" height="30" rx="4" fill="#262626"/>
  <rect x="1640" y="104" width="30" height="30" rx="4" fill="#262626"/>
  <rect x="1672" y="104" width="30" height="30" rx="4" fill="#262626"/>
  <rect x="8" y="136" width="30" height="30" rx="4" fill="#262626"/>
  <rect x="40" y="136" width="30" height="30" rx="4" fill="#262626"/>
  <rect x="72" y="136" width="30" height="30" rx="4" fill="#262626"/>
  <rect x="104" y="136" width="30" height="30" rx="4" fill="#262626"/>
  <rect x="136" y="136" width="30" height="30" rx="4" fill="#39d353"/>
  <rect x="168" y="136" width="30" height="30" rx="4" fill="#262626"/>
  <rect x="200" y="136" width="30" height="30" rx="4" fill="#262626"/>
  <rect x="232" y="136" width="30" height="30" rx="4" fill="#016c31"/>
  <rect x="264" y="136" width="30" height="30" rx="4" fill="#26a641"/>
  <rect x="296" y="136" width="30" height="30" rx="4" fill="#39d353"/>
  <rect x="328" y="136" width="30" height="30" rx="4" fill="#262626"/>
  <rect x="360" y="136" width="30" height="30" rx="4" fill="#39d353"/>
  <rect x="392" y="136" width="30" height="30" rx="4" fill="#262626"/>
  <rect x="424" y="136" width="30" height="30" rx="4" fill="#39d353"/>
  <rect x="456" y="136" width="30" height="30" rx="4" fill="#262626"/>
  <rect x="488" y="136" width="30" height="30" rx="4" fill="#39d353"/>
  <rect x="520" y="136" width="30" height="30" rx="4" fill="#262626"/>
  <rect x="552" y="136" width="30" height="30" rx="4" fill="#262626"/>
  <rect x="584" y="136" width="30" height="30" rx="4" fill="#262626"/>
  <rect x="616" y="136" width="30" height="30" rx="4" fill="#262626"/>
  <rect x="648" y="136" width="30" height="30" rx="4" fill="#262626"/>
  <rect x="680" y="136" width="30" height="30" rx="4" fill="#39d353"/>
  <rect x="712" y="136" width="30" height="30" rx="4" fill="#262626"/>
  <rect x="744" y="136" width="30" height="30" rx="4" fill="#39d353"/>
  <rect x="776" y="136" width="30" height="30" rx="4" fill="#262626"/>
  <rect x="808" y="136" width="30" height="30" rx="4" fill="#262626"/>
  <rect x="840" y="136" width="30" height="30" rx="4" fill="#262626"/>
  <rect x="872" y="136" width="30" height="30" rx="4" fill="#39d353"/>
  <rect x="904" y="136" width="30" height="30" rx="4" fill="#262626"/>
  <rect x="936" y="136" width="30" height="30" rx="4" fill="#39d353"/>
  <rect x="968" y="136" width="30" height="30" rx="4" fill="#262626"/>
  <rect x="1000" y="136" width="30" height="30" rx="4" fill="#39d353"/>
  <rect x="1032" y="136" width="30" height="30" rx="4" fill="#262626"/>
  <rect x="1064" y="136" width="30" height="30" rx="4" fill="#262626"/>
  <rect x="1096" y="136" width="30" height="30" rx="4" fill="#262626"/>
  <rect x="1128" y="136" width="30" height="30" rx="4" fill="#262626"/>
  <rect x="1160" y="136" width="30" height="30" rx="4" fill="#262626"/>
  <rect x="1192" y="136" width="30" height="30" rx="4" fill="#016c31"/>
  <rect x="1224" y="136" width="30" height="30" rx="4" fill="#26a641"/>
  <rect x="1256" y="136" width="30" height="30" rx="4" fill="#39d353"/>
  <rect x="1288" y="136" width="30" height="30" rx="4" fill="#262626"/>
  <rect x="1320" y="136" width="30" height="30" rx="4" fill="#262626"/>
  <rect x="1352" y="136" width="30" height="30" rx="4" fill="#262626"/>
  <rect x="1384" y="136" width="30" height="30" rx="4" fill="#262626"/>
  <rect x="1416" y="136" width="30" height="30" rx="4" fill="#262626"/>
  <rect x="1448" y="136" width="30" height="30" rx="4" fill="#262626"/>
  <rect x="1480" y="136" width="30" height="30" rx="4" fill="#262626"/>
  <rect x="1512" y="136" width="30" height="30" rx="4" fill="#262626"/>
  <rect x="1544" y="136" width="30" height="30" rx="4" fill="#262626"/>
  <rect x="1576" y="136" width="30" height="30" rx="4" fill="#262626"/>
  <rect x="1608" y="136" width="30" height="30" rx="4" fill="#262626"/>
  <rect x="1640" y="136" width="30" height="30" rx="4" fill="#262626"/>
  <rect x="1672" y="136" width="30" height="30" rx="4" fill="#262626"/>
  <rect x="8" y="168" width="30" height="30" rx="4" fill="#262626"/>
  <rect x="40" y="168" width="30" height="30" rx="4" fill="#262626"/>
  <rect x="72" y="168" width="30" height="30" rx="4" fill="#262626"/>
  <rect x="104" y="168" width="30" height="30" rx="4" fill="#262626"/>
  <rect x="136" y="168" width="30" height="30" rx="4" fill="#39d353"/>
  <rect x="168" y="168" width="30" height="30" rx="4" fill="#262626"/>
  <rect x="200" y="168" width="30" height="30" rx="4" fill="#262626"/>
  <rect x="232" y="168" width="30" height="30" rx="4" fill="#262626"/>
  <rect x="264" y="168" width="30" height="30" rx="4" fill="#016c31"/>
  <rect x="296" y="168" width="30" height="30" rx="4" fill="#39d353"/>
  <rect x="328" y="168" width="30" height="30" rx="4" fill="#262626"/>
  <rect x="360" y="168" width="30" height="30" rx="4" fill="#39d353"/>
  <rect x="392" y="168" width="30" height="30" rx="4" fill="#262626"/>
  <rect x="424" y="168" width="30" height="30" rx="4" fill="#39d353"/>
  <rect x="456" y="168" width="30" height="30" rx="4" fill="#262626"/>
  <rect x="488" y="168" width="30" height="30" rx="4" fill="#39d353"/>
  <rect x="520" y="168" width="30" height="30" rx="4" fill="#0d4429"/>
  <rect x="552" y="168" width="30" height="30" rx="4" fill="#016c31"/>
  <rect x="584" y="168" width="30" height="30" rx="4" fill="#016c31"/>
  <rect x="616" y="168" width="30" height="30" rx="4" fill="#26a641"/>
  <rect x="648" y="168" width="30" height="30" rx="4" fill="#39d353"/>
  <rect x="680" y="168" width="30" height="30" rx="4" fill="#39d353"/>
  <rect x="712" y="168" width="30" height="30" rx="4" fill="#262626"/>
  <rect x="744" y="168" width="30" height="30" rx="4" fill="#39d353"/>
  <rect x="776" y="168" width="30" height="30" rx="4" fill="#262626"/>
  <rect x="808" y="168" width="30" height="30" rx="4" fill="#262626"/>
  <rect x="840" y="168" width="30" height="30" rx="4" fill="#262626"/>
  <rect x="872" y="168" width="30" height="30" rx="4" fill="#39d353"/>
  <rect x="904" y="168" width="30" height="30" rx="4" fill="#262626"/>
  <rect x="936" y="168" width="30" height="30" rx="4" fill="#39d353"/>
  <rect x="968" y="168" width="30" height="30" rx="4" fill="#262626"/>
  <rect x="1000" y="168" width="30" height="30" rx="4" fill="#39d353"/>
  <rect x="1032" y="168" width="30" height="30" rx="4" fill="#016c31"/>
  <rect x="1064" y="168" width="30" height="30" rx="4" fill="#26a641"/>
  <rect x="1096" y="168" width="30" height="30" rx="4" fill="#39d353"/>
  <rect x="1128" y="168" width="30" height="30" rx="4" fill="#262626"/>
  <rect x="1160" y="168" width="30" height="30" rx="4" fill="#262626"/>
  <rect x="1192" y="168" width="30" height="30" rx="4" fill="#262626"/>
  <rect x="1224" y="168" width="30" height="30" rx="4" fill="#26a641"/>
  <rect x="1256" y="168" width="30" height="30" rx="4" fill="#262626"/>
  <rect x="1288" y="168" width="30" height="30" rx="4" fill="#262626"/>
  <rect x="1320" y="168" width="30" height="30" rx="4" fill="#262626"/>
  <rect x="1352" y="168" width="30" height="30" rx="4" fill="#262626"/>
  <rect x="1384" y="168" width="30" height="30" rx="4" fill="#262626"/>
  <rect x="1416" y="168" width="30" height="30" rx="4" fill="#262626"/>
  <rect x="1448" y="168" width="30" height="30" rx="4" fill="#262626"/>
  <rect x="1480" y="168" width="30" height="30" rx="4" fill="#262626"/>
  <rect x="1512" y="168" width="30" height="30" rx="4" fill="#262626"/>
  <rect x="1544" y="168" width="30" height="30" rx="4" fill="#262626"/>
  <rect x="1576" y="168" width="30" height="30" rx="4" fill="#262626"/>
  <rect x="1608" y="168" width="30" height="30" rx="4" fill="#262626"/>
  <rect x="1640" y="168" width="30" height="30" rx="4" fill="#262626"/>
  <rect x="1672" y="168" width="30" height="30" rx="4" fill="#262626"/>
  <rect x="8" y="200" width="30" height="30" rx="4" fill="#262626"/>
  <rect x="40" y="200" width="30" height="30" rx="4" fill="#262626"/>
  <rect x="72" y="200" width="30" height="30" rx="4" fill="#262626"/>
  <rect x="104" y="200" width="30" height="30" rx="4" fill="#262626"/>
  <rect x="136" y="200" width="30" height="30" rx="4" fill="#262626"/>
  <rect x="168" y="200" width="30" height="30" rx="4" fill="#262626"/>
  <rect x="200" y="200" width="30" height="30" rx="4" fill="#262626"/>
  <rect x="232" y="200" width="30" height="30" rx="4" fill="#262626"/>
  <rect x="264" y="200" width="30" height="30" rx="4" fill="#262626"/>
  <rect x="296" y="200" width="30" height="30" rx="4" fill="#262626"/>
  <rect x="328" y="200" width="30" height="30" rx="4" fill="#262626"/>
  <rect x="360" y="200" width="30" height="30" rx="4" fill="#262626"/>
  <rect x="392" y="200" width="30" height="30" rx="4" fill="#262626"/>
  <rect x="424" y="200" width="30" height="30" rx="4" fill="#262626"/>
  <rect x="456" y="200" width="30" height="30" rx="4" fill="#262626"/>
  <rect x="488" y="200" width="30" height="30" rx="4" fill="#262626"/>
  <rect x="520" y="200" width="30" height="30" rx="4" fill="#262626"/>
  <rect x="552" y="200" width="30" height="30" rx="4" fill="#262626"/>
  <rect x="584" y="200" width="30" height="30" rx="4" fill="#262626"/>
  <rect x="616" y="200" width="30" height="30" rx="4" fill="#262626"/>
  <rect x="648" y="200" width="30" height="30" rx="4" fill="#262626"/>
  <rect x="680" y="200" width="30" height="30" rx="4" fill="#262626"/>
  <rect x="712" y="200" width="30" height="30" rx="4" fill="#262626"/>
  <rect x="744" y="200" width="30" height="30" rx="4" fill="#262626"/>
  <rect x="776" y="200" width="30" height="30" rx="4" fill="#262626"/>
  <rect x="808" y="200" width="30" height="30" rx="4" fill="#262626"/>
  <rect x="840" y="200" width="30" height="30" rx="4" fill="#262626"/>
  <rect x="872" y="200" width="30" height="30" rx="4" fill="#262626"/>
  <rect x="904" y="200" width="30" height="30" rx="4" fill="#262626"/>
  <rect x="936" y="200" width="30" height="30" rx="4" fill="#262626"/>
  <rect x="968" y="200" width="30" height="30" rx="4" fill="#262626"/>
  <rect x="1000" y="200" width="30" height="30" rx="4" fill="#262626"/>
  <rect x="1032" y="200" width="30" height="30" rx="4" fill="#262626"/>
  <rect x="1064" y="200" width="30" height="30" rx="4" fill="#262626"/>
  <rect x="1096" y="200" width="30" height="30" rx="4" fill="#262626"/>
  <rect x="1128" y="200" width="30" height="30" rx="4" fill="#262626"/>
  <rect x="1160" y="200" width="30" height="30" rx="4" fill="#262626"/>
  <rect x="1192" y="200" width="30" height="30" rx="4" fill="#262626"/>
  <rect x="1224" y="200" width="30" height="30" rx="4" fill="#262626"/>
  <rect x="1256" y="200" width="30" height="30" rx="4" fill="#262626"/>
  <rect x="1288" y="200" width="30" height="30" rx="4" fill="#262626"/>
  <rect x="1320" y="200" width="30" height="30" rx="4" fill="#262626"/>
  <rect x="1352" y="200" width="30" height="30" rx="4" fill="#262626"/>
  <rect x="1384" y="200" width="30" height="30" rx="4" fill="#262626"/>
  <rect x="1416" y="200" width="30" height="30" rx="4" fill="#262626"/>
  <rect x="1448" y="200" width="30" height="30" rx="4" fill="#262626"/>
  <rect x="1480" y="200" width="30" height="30" rx="4" fill="#262626"/>
  <rect x="1512" y="200" width="30" height="30" rx="4" fill="#262626"/>
  <rect x="1544" y="200" width="30" height="30" rx="4" fill="#262626"/>
  <rect x="1576" y="200" width="30" height="30" rx="4" fill="#262626"/>
  <rect x="1608" y="200" width="30" height="30" rx="4" fill="#262626"/>
  <rect x="1640" y="200" width="30" height="30" rx="4" fill="#262626"/>
  <rect x="1672" y="200" width="30" height="30" rx="4" fill="#262626"/>
</svg>
