<svg xmlns="http://www.w3.org/2000/svg" viewBox="0 0 1194 170" role="img" aria-labelledby="title desc">
  <title id="title">GitHub Painter Canvas Render</title>
  <desc id="desc">Generated from painter/canvas.json.</desc>
  <rect x="6" y="6" width="30" height="30" rx="4" fill="#39d353"/>
  <rect x="38" y="6" width="30" height="30" rx="4" fill="#26a641"/>
  <rect x="166" y="6" width="30" height="30" rx="4" fill="#39d353"/>
  <rect x="230" y="6" width="30" height="30" rx="4" fill="#39d353"/>
  <rect x="262" y="6" width="30" height="30" rx="4" fill="#016c31"/>
  <rect x="294" y="6" width="30" height="30" rx="4" fill="#26a641"/>
  <rect x="358" y="6" width="30" height="30" rx="4" fill="#39d353"/>
  <rect x="550" y="6" width="30" height="30" rx="4" fill="#39d353"/>
  <rect x="614" y="6" width="30" height="30" rx="4" fill="#39d353"/>
  <rect x="646" y="6" width="30" height="30" rx="4" fill="#016c31"/>
  <rect x="678" y="6" width="30" height="30" rx="4" fill="#26a641"/>
  <rect x="742" y="6" width="30" height="30" rx="4" fill="#39d353"/>
  <rect x="774" y="6" width="30" height="30" rx="4" fill="#016c31"/>
  <rect x="806" y="6" width="30" height="30" rx="4" fill="#26a641"/>
  <rect x="870" y="6" width="30" height="30" rx="4" fill="#39d353"/>
  <rect x="1062" y="6" width="30" height="30" rx="4" fill="#016c31"/>
  <rect x="1126" y="6" width="30" height="30" rx="4" fill="#39d353"/>
  <rect x="6" y="38" width="30" height="30" rx="4" fill="#39d353"/>
  <rect x="38" y="38" width="30" height="30" rx="4" fill="#016c31"/>
  <rect x="70" y="38" width="30" height="30" rx="4" fill="#26a641"/>
  <rect x="166" y="38" width="30" height="30" rx="4" fill="#39d353"/>
  <rect x="230" y="38" width="30" height="30" rx="4" fill="#39d353"/>
  <rect x="294" y="38" width="30" height="30" rx="4" fill="#26a641"/>
  <rect x="358" y="38" width="30" height="30" rx="4" fill="#39d353"/>
  <rect x="422" y="38" width="30" height="30" rx="4" fill="#39d353"/>
  <rect x="486" y="38" width="30" height="30" rx="4" fill="#39d353"/>
  <rect x="550" y="38" width="30" height="30" rx="4" fill="#39d353"/>
  <rect x="614" y="38" width="30" height="30" rx="4" fill="#39d353"/>
  <rect x="742" y="38" width="30" height="30" rx="4" fill="#39d353"/>
  <rect x="806" y="38" width="30" height="30" rx="4" fill="#26a641"/>
  <rect x="870" y="38" width="30" height="30" rx="4" fill="#39d353"/>
  <rect x="1030" y="38" width="30" height="30" rx="4" fill="#016c31"/>
  <rect x="1062" y="38" width="30" height="30" rx="4" fill="#016c31"/>
  <rect x="1094" y="38" width="30" height="30" rx="4" fill="#26a641"/>
  <rect x="1126" y="38" width="30" height="30" rx="4" fill="#39d353"/>
  <rect x="1158" y="38" width="30" height="30" rx="4" fill="#39d353"/>
  <rect x="6" y="70" width="30" height="30" rx="4" fill="#39d353"/>
  <rect x="70" y="70" width="30" height="30" rx="4" fill="#016c31"/>
  <rect x="102" y="70" width="30" height="30" rx="4" fill="#26a641"/>
  <rect x="166" y="70" width="30" height="30" rx="4" fill="#39d353"/>
  <rect x="230" y="70" width="30" height="30" rx="4" fill="#39d353"/>
  <rect x="262" y="70" width="30" height="30" rx="4" fill="#016c31"/>
  <rect x="294" y="70" width="30" height="30" rx="4" fill="#26a641"/>
  <rect x="358" y="70" width="30" height="30" rx="4" fill="#39d353"/>
  <rect x="550" y="70" width="30" height="30" rx="4" fill="#39d353"/>
  <rect x="614" y="70" width="30" height="30" rx="4" fill="#39d353"/>
  <rect x="646" y="70" width="30" height="30" rx="4" fill="#26a641"/>
  <rect x="678" y="70" width="30" height="30" rx="4" fill="#39d353"/>
  <rect x="742" y="70" width="30" height="30" rx="4" fill="#39d353"/>
  <rect x="774" y="70" width="30" height="30" rx="4" fill="#016c31"/>
  <rect x="806" y="70" width="30" height="30" rx="4" fill="#26a641"/>
  <rect x="870" y="70" width="30" height="30" rx="4" fill="#39d353"/>
  <rect x="1030" y="70" width="30" height="30" rx="4" fill="#016c31"/>
  <rect x="1062" y="70" width="30" height="30" rx="4" fill="#016c31"/>
  <rect x="1094" y="70" width="30" height="30" rx="4" fill="#26a641"/>
  <rect x="1126" y="70" width="30" height="30" rx="4" fill="#39d353"/>
  <rect x="1158" y="70" width="30" height="30" rx="4" fill="#39d353"/>
  <rect x="6" y="102" width="30" height="30" rx="4" fill="#39d353"/>
  <rect x="102" y="102" width="30" height="30" rx="4" fill="#016c31"/>
  <rect x="134" y="102" width="30" height="30" rx="4" fill="#26a641"/>
  <rect x="166" y="102" width="30" height="30" rx="4" fill="#39d353"/>
  <rect x="230" y="102" width="30" height="30" rx="4" fill="#39d353"/>
  <rect x="294" y="102" width="30" height="30" rx="4" fill="#39d353"/>
  <rect x="358" y="102" width="30" height="30" rx="4" fill="#39d353"/>
  <rect x="550" y="102" width="30" height="30" rx="4" fill="#39d353"/>
  <rect x="614" y="102" width="30" height="30" rx="4" fill="#39d353"/>
  <rect x="742" y="102" width="30" height="30" rx="4" fill="#39d353"/>
  <rect x="806" y="102" width="30" height="30" rx="4" fill="#39d353"/>
  <rect x="870" y="102" width="30" height="30" rx="4" fill="#39d353"/>
  <rect x="1062" y="102" width="30" height="30" rx="4" fill="#016c31"/>
  <rect x="1094" y="102" width="30" height="30" rx="4" fill="#26a641"/>
  <rect x="1126" y="102" width="30" height="30" rx="4" fill="#39d353"/>
  <rect x="6" y="134" width="30" height="30" rx="4" fill="#39d353"/>
  <rect x="134" y="134" width="30" height="30" rx="4" fill="#016c31"/>
  <rect x="166" y="134" width="30" height="30" rx="4" fill="#39d353"/>
  <rect x="230" y="134" width="30" height="30" rx="4" fill="#39d353"/>
  <rect x="294" y="134" width="30" height="30" rx="4" fill="#39d353"/>
  <rect x="358" y="134" width="30" height="30" rx="4" fill="#39d353"/>
  <rect x="390" y="134" width="30" height="30" rx="4" fill="#0d4429"/>
  <rect x="422" y="134" width="30" height="30" rx="4" fill="#016c31"/>
  <rect x="454" y="134" width="30" height="30" rx="4" fill="#016c31"/>
  <rect x="486" y="134" width="30" height="30" rx="4" fill="#26a641"/>
  <rect x="518" y="134" width="30" height="30" rx="4" fill="#39d353"/>
  <rect x="550" y="134" width="30" height="30" rx="4" fill="#39d353"/>
  <rect x="614" y="134" width="30" height="30" rx="4" fill="#39d353"/>
  <rect x="742" y="134" width="30" height="30" rx="4" fill="#39d353"/>
  <rect x="806" y="134" width="30" height="30" rx="4" fill="#39d353"/>
  <rect x="870" y="134" width="30" height="30" rx="4" fill="#39d353"/>
  <rect x="902" y="134" width="30" height="30" rx="4" fill="#016c31"/>
  <rect x="934" y="134" width="30" height="30" rx="4" fill="#26a641"/>
  <rect x="966" y="134" width="30" height="30" rx="4" fill="#39d353"/>
  <rect x="1094" y="134" width="30" height="30" rx="4" fill="#26a641"/>
</svg>
